name analog
datacolumns 19
datarows 28
range 0.0 0.0135
endheader
time	ground_force_vx	ground_force_vy	ground_force_vz	ground_force_px	ground_force_py	ground_force_pz	l_ground_force_vx	l_ground_force_vy	l_ground_force_vz	l_ground_force_px	l_ground_force_py	l_ground_force_pz	ground_torque_x	ground_torque_y	ground_torque_z	l_ground_torque_x	l_ground_torque_y	l_ground_torque_z
0.0	-0.0	-0.0	-0.0	-2.230262756347656	13.781282424926758	-155.49668884277344	13.040485382080078	-19.43077087402344	-621.9949951171875	-0.0	-0.0	-0.0	-0.0	-0.0	-0.0	183471.28125	-29186.091796875	1503.958984375
0.0005	-0.0	-0.0	-0.0	-2.780916452407837	13.888965606689451	-158.7361297607422	13.484039306640623	-19.440105438232425	-619.4915161132812	-0.0	-0.0	-0.0	-0.0	-0.0	-0.0	182894.1875	-29352.74609375	1606.5101318359375
0.001	-0.0	-0.0	-0.0	-3.574859142303467	14.430068016052246	-163.81410217285156	13.459554672241213	-19.71092796325684	-616.4816284179688	-0.0	-0.0	-0.0	-0.0	-0.0	-0.0	182456.3125	-29824.09765625	1665.7520751953125
0.0015	-0.0	-0.0	-0.0	-3.786989450454712	14.893683433532717	-167.989990234375	13.597196578979492	-20.26253890991211	-615.5185546875	-0.0	-0.0	-0.0	-0.0	-0.0	-0.0	181939.921875	-29828.708984375	1797.6806640625
0.002	-0.0	-0.0	-0.0	-3.925262451171875	15.01407527923584	-172.60797119140625	13.863301277160645	-19.439697265625	-615.3973999023438	-0.0	-0.0	-0.0	-0.0	-0.0	-0.0	181486.859375	-30231.275390625	1890.0875244140625
0.0025	-0.0	-0.0	-0.0	-4.436059474945068	14.973907470703123	-176.0773162841797	14.01630401611328	-19.190080642700195	-612.8223266601562	-0.0	-0.0	-0.0	-0.0	-0.0	-0.0	180895.3125	-30730.98046875	1930.9996337890625
0.003	-0.0	-0.0	-0.0	-4.45310115814209	14.989819526672363	-181.24435424804688	14.49121379852295	-19.40653419494629	-610.82373046875	-0.0	-0.0	-0.0	-0.0	-0.0	-0.0	180382.984375	-30842.107421875	2022.531494140625
0.0035	-0.0	-0.0	-0.0	-4.955364227294922	15.111780166625977	-183.94053649902344	14.153634071350098	-19.42228126525879	-608.3463745117188	-0.0	-0.0	-0.0	-0.0	-0.0	-0.0	179830.703125	-31052.80859375	1941.4241943359373
0.004	-0.0	-0.0	-0.0	-5.741717338562012	15.605695724487305	-190.49305725097656	13.838882446289062	-19.101655960083008	-606.127197265625	-0.0	-0.0	-0.0	-0.0	-0.0	-0.0	178946.984375	-31493.15234375	2119.256103515625
0.0045000000000000005	-0.0	-0.0	-0.0	-5.660822868347168	15.670729637145996	-193.70318603515625	14.411375045776367	-19.48673820495605	-602.6660766601562	-0.0	-0.0	-0.0	-0.0	-0.0	-0.0	178222.171875	-31150.619140625	2141.110595703125
0.005	-0.0	-0.0	-0.0	-6.699198246002197	16.035541534423828	-198.23008728027344	14.1937255859375	-19.21400260925293	-599.7791137695312	-0.0	-0.0	-0.0	-0.0	-0.0	-0.0	177268.640625	-31734.40625	2154.53955078125
0.0055	-0.0	-0.0	-0.0	-6.560886383056641	16.310863494873047	-202.11495971679688	14.419500350952148	-19.39855194091797	-596.0969848632812	-0.0	-0.0	-0.0	-0.0	-0.0	-0.0	176111.96875	-31765.14453125	2284.04833984375
0.006	-0.0	-0.0	-0.0	-7.330616474151611	16.245933532714844	-206.76693725585935	14.290282249450684	-19.5911922454834	-593.0494995117188	-0.0	-0.0	-0.0	-0.0	-0.0	-0.0	175304.4375	-31778.4765625	2335.1259765625
0.006500000000000001	-0.0	-0.0	-0.0	-8.450814247131348	16.52080726623535	-208.37615966796875	14.572669982910156	-19.89637565612793	-589.0833129882812	-0.0	-0.0	-0.0	-0.0	-0.0	-0.0	174094.453125	-32028.216796875	2270.410400390625
0.007	-0.0	-0.0	-0.0	-9.092042922973633	16.934776306152344	-214.24774169921875	14.725990295410156	-20.016210556030277	-585.0833740234375	-0.0	-0.0	-0.0	-0.0	-0.0	-0.0	173029.84375	-32237.65625	2542.934814453125
0.0075	-0.0	-0.0	-0.0	-9.415348052978516	17.68646240234375	-217.7498321533203	15.67776870727539	-20.29747009277344	-580.7337646484375	-0.0	-0.0	-0.0	-0.0	-0.0	-0.0	171848.5625	-32481.8984375	2643.037109375
0.008	-0.0	-0.0	-0.0	-10.145914077758787	18.38492584228516	-222.15017700195312	15.862526893615724	-20.089550018310547	-577.656982421875	-0.0	-0.0	-0.0	-0.0	-0.0	-0.0	170670.078125	-32440.9140625	2950.94482421875
0.0085	-0.0	-0.0	-0.0	-11.460041999816896	18.82353973388672	-229.09075927734372	16.48341941833496	-20.1063175201416	-572.8351440429688	-0.0	-0.0	-0.0	-0.0	-0.0	-0.0	169527.515625	-32609.03125	3045.97802734375
0.009000000000000001	-0.0	-0.0	-0.0	-11.895882606506348	19.300161361694336	-231.9713134765625	17.250728607177734	-20.0560302734375	-569.2501831054688	-0.0	-0.0	-0.0	-0.0	-0.0	-0.0	168100.296875	-32762.37109375	3262.21435546875
0.0095	-0.0	-0.0	-0.0	-12.526883125305176	19.46780586242676	-236.27737426757807	17.72514533996582	-20.37851333618164	-564.162109375	-0.0	-0.0	-0.0	-0.0	-0.0	-0.0	167015.296875	-33045.98046875	3391.433837890625
0.01	-0.0	-0.0	-0.0	-13.821024894714355	19.621885299682617	-240.4468536376953	18.16183853149414	-19.93693351745605	-559.05908203125	-0.0	-0.0	-0.0	-0.0	-0.0	-0.0	165720.21875	-33047.78125	3502.49365234375
0.0105	-0.0	-0.0	-0.0	-14.880692481994627	20.132471084594727	-245.29623413085935	18.79610824584961	-20.001562118530277	-554.9373779296875	-0.0	-0.0	-0.0	-0.0	-0.0	-0.0	164565.96875	-33114.3984375	3753.926513671875
0.011	-0.0	-0.0	-0.0	-15.635717391967772	20.969501495361328	-249.72315979003903	19.516372680664062	-19.61386489868164	-549.6072998046875	-0.0	-0.0	-0.0	-0.0	-0.0	-0.0	162966.296875	-33498.6875	3800.10400390625
0.0115	-0.0	-0.0	-0.0	-16.373210906982422	20.93414306640625	-255.11471557617188	19.38013458251953	-19.27147102355957	-543.4420166015625	-0.0	-0.0	-0.0	-0.0	-0.0	-0.0	161336.234375	-33561.73828125	3932.48779296875
0.012	-0.0	-0.0	-0.0	-17.485260009765625	22.051101684570312	-260.57647705078125	20.527198791503903	-19.012794494628903	-538.6720581054688	-0.0	-0.0	-0.0	-0.0	-0.0	-0.0	159866.328125	-33337.28125	4235.853515625
0.0125	-0.0	-0.0	-0.0	-17.89556121826172	22.549991607666016	-265.0024719238281	20.71700859069824	-18.85970687866211	-532.9679565429688	-0.0	-0.0	-0.0	-0.0	-0.0	-0.0	158177.390625	-33765.8359375	4267.75048828125
0.013000000000000001	-0.0	-0.0	-0.0	-19.216236114501957	23.393856048583984	-271.3134155273437	21.24326705932617	-18.61822509765625	-528.56884765625	-0.0	-0.0	-0.0	-0.0	-0.0	-0.0	156624.9375	-33807.69921875	4467.89697265625
0.0135	-0.0	-0.0	-0.0	-19.92329788208008	24.017826080322266	-275.9497375488281	21.716331481933597	-18.830251693725582	-521.70263671875	-0.0	-0.0	-0.0	-0.0	-0.0	-0.0	155276.328125	-33655.35546875	4675.818359375
